<svg width="20" height="18" viewBox="0 0 20 18" fill="none" xmlns="http://www.w3.org/2000/svg">
<g filter="url(#filter0_d_3021_2)">
<path d="M9.92138 10.1875C10.5015 10.1875 11.0579 9.95702 11.4682 9.54679C11.8784 9.13655 12.1089 8.58015 12.1089 7.99999C12.1089 7.93593 12.1059 7.87245 12.1005 7.80976L9.73114 10.1791C9.79384 10.1846 9.85712 10.1875 9.92138 10.1875ZM17.162 1.23359L16.3276 0.399992C16.2983 0.370711 16.2586 0.354263 16.2172 0.354263C16.1758 0.354263 16.136 0.370711 16.1067 0.399992L13.9716 2.53573C12.7937 1.93378 11.4697 1.6328 9.9995 1.6328C6.2456 1.6328 3.44481 3.58788 1.59716 7.49804C1.52289 7.6553 1.48438 7.82705 1.48438 8.00097C1.48438 8.17488 1.52289 8.34664 1.59716 8.5039C2.33544 10.059 3.22444 11.3054 4.26415 12.2432L2.19794 14.3086C2.16866 14.3379 2.15221 14.3776 2.15221 14.419C2.15221 14.4605 2.16866 14.5002 2.19794 14.5295L3.03173 15.3633C3.06103 15.3926 3.10076 15.409 3.14218 15.409C3.1836 15.409 3.22333 15.3926 3.25263 15.3633L17.162 1.45468C17.1765 1.44017 17.1881 1.42294 17.1959 1.40397C17.2038 1.385 17.2078 1.36467 17.2078 1.34413C17.2078 1.3236 17.2038 1.30327 17.1959 1.2843C17.1881 1.26533 17.1765 1.2481 17.162 1.23359ZM6.48388 7.99999C6.48382 7.40625 6.63756 6.82262 6.9301 6.30596C7.22265 5.78929 7.64403 5.35721 8.1532 5.05181C8.66237 4.7464 9.24196 4.57808 9.83551 4.56325C10.4291 4.54842 11.0163 4.68758 11.5401 4.96718L10.5905 5.91679C10.2075 5.79416 9.7982 5.77939 9.40739 5.8741C9.01658 5.96881 8.65941 6.16934 8.37507 6.45368C8.09073 6.73803 7.8902 7.0952 7.79549 7.48601C7.70078 7.87682 7.71555 8.28616 7.83817 8.66913L6.88857 9.61874C6.62208 9.12085 6.48305 8.56471 6.48388 7.99999Z" fill="#BDBDBD"/>
<path d="M18.4035 7.49609C17.716 6.04818 16.8977 4.86751 15.9486 3.9541L13.1334 6.76953C13.3707 7.38987 13.4233 8.06566 13.2848 8.71525C13.1464 9.36484 12.8228 9.96044 12.3531 10.4301C11.8835 10.8997 11.2879 11.2233 10.6383 11.3618C9.98871 11.5003 9.31292 11.4477 8.69258 11.2104L6.30469 13.5982C7.4125 14.1109 8.64466 14.3672 10.0012 14.3672C13.7551 14.3672 16.5559 12.4121 18.4035 8.50195C18.4778 8.3447 18.5163 8.17294 18.5163 7.99902C18.5163 7.82511 18.4778 7.65335 18.4035 7.49609Z" fill="#BDBDBD"/>
</g>
<defs>
<filter id="filter0_d_3021_2" x="-2.51562" y="0.354263" width="25.0312" height="23.0547" filterUnits="userSpaceOnUse" color-interpolation-filters="sRGB">
<feFlood flood-opacity="0" result="BackgroundImageFix"/>
<feColorMatrix in="SourceAlpha" type="matrix" values="0 0 0 0 0 0 0 0 0 0 0 0 0 0 0 0 0 0 127 0" result="hardAlpha"/>
<feOffset dy="4"/>
<feGaussianBlur stdDeviation="2"/>
<feComposite in2="hardAlpha" operator="out"/>
<feColorMatrix type="matrix" values="0 0 0 0 0 0 0 0 0 0 0 0 0 0 0 0 0 0 0.25 0"/>
<feBlend mode="normal" in2="BackgroundImageFix" result="effect1_dropShadow_3021_2"/>
<feBlend mode="normal" in="SourceGraphic" in2="effect1_dropShadow_3021_2" result="shape"/>
</filter>
</defs>
</svg>
